# xmcd
# 
# Track frame offsets:
#     150
#     22004
#     40573
#     47406
# 
# Disc length: 924
# 
# Revision: 1
# Processed by: cddbd v1.5.2PL0 Copyright (c) Steve Scherf et al.
# Submitted via: fre:ac v1.0.17
# 
DISCID=24039a04
DTITLE=EGOIST - KABANERI OF THE IRON FORTRESS
DYEAR=2016
DGENRE=
TTITLE0=KABANERI OF THE IRON FORTRESS
TTITLE1=It's all about you
TTITLE2=KABANERI OF THE IRON FORTRESS (TV Edit)
TTITLE3=KABANERI OF THE IRON FORTRESS -Instrumental-
EXTD=
EXTT0=
EXTT1=
EXTT2=
EXTT3=
PLAYORDER=
